<?xml version="1.0" encoding="utf-8"?>
<svg version="1.1" xmlns="http://www.w3.org/2000/svg" xmlns:xlink="http://www.w3.org/1999/xlink" height="20.572601940975233" width="16.00000044201215">
  <defs>
    <path id="path-1" opacity="1" fill-rule="evenodd" d="M0.5794281611283623,20.4228572845459 C0.754286254390081,20.52228546142578 0.9485726008256279,20.571428298950195 1.142857039912542,20.571428298950195 C1.3462853083451591,20.571428298950195 1.5497154841264091,20.516571044921875 1.7302860865434013,20.409143447875977 L7.812572921260198,16.757715225219727 L14.294857467158636,20.423999786376953 C14.649143661006292,20.62514305114746 15.08114286754926,20.621715545654297 15.433144057734808,20.416000366210938 C15.784000838740667,20.211429595947266 16.00000044201215,19.83542823791504 16.00000044201215,19.428571701049805 L16.00000044201215,2.667428493499756 C16.00000044201215,1.1965718269348145 14.87200208996137,0 13.485714400752386,0 L2.514286483271917,0 C1.1280007014115654,0 4.420121513248887e-7,1.1965718269348145 4.420121513248887e-7,2.667428493499756 L4.420121513248887e-7,19.428571701049805 C4.420121513248887e-7,19.84000015258789 0.22171446178754195,20.220571517944336 0.5794281611283623,20.4228572845459 L8.357714141352972,14.440000534057617 C8.182856048091253,14.341712951660156 7.988571609004339,14.292572021484375 7.795427764399847,14.292572021484375 C7.5919994959672294,14.292572021484375 7.388571227534612,14.347427368164062 7.206856215937933,14.456001281738281 L2.2857136378129326,17.41028594970703 L2.2857136378129326,2.667428493499756 C2.2857136378129326,2.4377150535583496 2.422855819209417,2.285714626312256 2.514284575923284,2.285714626312256 L13.485714400752386,2.285714626312256 C13.576000655635198,2.285714626312256 13.714285338862737,2.4377150535583496 13.714285338862737,2.667428493499756 L13.714285338862737,17.469715118408203 L8.357714141352972,14.440000534057617 L0.5794281611283623,20.4228572845459Z"/>
  </defs>
  <g opacity="1">
    <use xlink:href="#path-1" fill="rgb(148,146,160)" fill-opacity="1"/>
  </g>
</svg>