<?xml version="1.0" encoding="utf-8"?>
<svg version="1.1" xmlns="http://www.w3.org/2000/svg" xmlns:xlink="http://www.w3.org/1999/xlink" height="20.850000000000023" width="22">
  <defs>
    <path id="path-1" opacity="1" fill-rule="evenodd" d="M17.117724103761596,20.84999999999996 C16.943921998503235,20.84999999999996 16.769019879920457,20.80930097599574 16.608417934555142,20.72570298074383 L10.99944999333761,17.79537325243996 L5.3915820654445,20.72570298074383 C5.0197775617905425,20.918198364547578 4.570972125427186,20.885199155895503 4.23436804815467,20.63880506462671 C3.8955639442333134,20.39241097335792 3.727261905597054,19.975520970720094 3.7987627716843533,19.56303086256921 L4.866875709696164,13.372379319440745 L0.33482081308580436,8.98898443682402 C0.03341716219472602,8.697491427064062 -0.07548415692285325,8.259701925613257 0.0532174020342866,7.859311527301466 C0.1819189609914245,7.461121076233146 0.5262231315348821,7.16962806647319 0.9420281681656386,7.110229490899462 L7.2121041173595835,6.199451332102309 L10.014938067981719,0.5609865470851609 C10.386742571635677,-0.1869955156951079 11.613257428363964,-0.1869955156951079 11.985061932017922,0.5609865470851609 L14.787895882640058,6.199451332102309 L21.057971831834003,7.110229490899462 C21.47377686846476,7.16962806647319 21.818081039008213,7.461121076233146 21.946782597965353,7.859311527301466 C22.075484156922492,8.259701925613257 21.966582837804914,8.697491427064062 21.66517918691384,8.98898443682402 L17.133124290303478,13.372379319440745 L18.201237228315286,19.56303086256921 C18.272738094402584,19.975520970720094 18.10333604244191,20.39241097335792 17.765631951844966,20.63880506462671 "/>
  </defs>
  <g opacity="1">
    <use xlink:href="#path-1" fill="rgb(148,146,160)" fill-opacity="1"/>
  </g>
</svg>