<?xml version="1.0" encoding="utf-8"?>
<svg version="1.1" xmlns="http://www.w3.org/2000/svg" xmlns:xlink="http://www.w3.org/1999/xlink" height="20.85180950164795" width="22.000000953674316">
  <defs>
    <path id="path-1" opacity="1" fill-rule="evenodd" d="M16.609153747558594,20.72713851928711 C16.768661499023438,20.810741424560547 16.94356918334961,20.851444244384766 17.11847686767578,20.851444244384766 C17.347286224365234,20.851444244384766 17.574996948242188,20.78104019165039 17.765304565429688,20.640235900878906 C18.104122161865234,20.393821716308594 18.27242660522461,19.976905822753906 18.2020263671875,19.56438446044922 L17.13277816772461,13.373307228088379 L21.664981842041016,8.989605903625488 C21.96749496459961,8.698094367980957 22.075302124023438,8.260273933410645 21.94659423828125,7.860956192016602 C21.818988800048828,7.461638450622559 21.47357177734375,7.171225547790527 21.058853149414062,7.110722541809082 L14.78747272491455,6.199881553649902 L11.985644340515137,0.5610256195068359 C11.6138277053833,-0.18700838088989258 10.3861722946167,-0.18700838088989258 10.014355659484863,0.5610256195068359 L7.212529182434082,6.199881553649902 L0.9411439895629883,7.110722541809082 C0.5264253616333008,7.171225547790527 0.18100929260253906,7.461638450622559 0.05340385437011719,7.860956192016602 C-0.0753021240234375,8.260273933410645 0.03250312805175781,8.698094367980957 0.33501625061035156,8.989605903625488 L4.867222785949707,13.373307228088379 L3.7979745864868164,19.56438446044922 C3.7275705337524414,19.976905822753906 3.895878791809082,20.393821716308594 4.234692573547363,20.640235900878906 C4.570208549499512,20.886646270751953 5.019028663635254,20.920745849609375 5.39084529876709,20.72713851928711 L11.000000953674316,17.79660415649414 L16.609153747558594,20.72713851928711 L11.509324073791504,15.58000659942627 C11.34981632232666,15.497502326965332 11.174908638000488,15.455700874328613 10.999999046325684,15.455700874328613 C10.825091361999512,15.455700874328613 10.65018367767334,15.497502326965332 10.490677833557129,15.58000659942627 L6.344588279724121,17.74710464477539 L7.13332462310791,13.174195289611816 C7.196026802062988,12.815579414367676 7.0761213302612305,12.450364112854004 6.814309120178223,12.19625186920166 L3.4745588302612305,8.966506004333496 L8.098069190979004,8.293274879455566 C8.455584526062012,8.241573333740234 8.76469898223877,8.01826286315918 8.925305366516113,7.69484806060791 L10.999999046325684,3.521259307861328 L13.074692726135254,7.69484806060791 C13.23530101776123,8.01826286315918 13.544415473937988,8.241573333740234 13.901930809020996,8.293274879455566 L18.525440216064453,8.966506004333496 L15.185688972473145,12.19625186920166 C14.92387866973877,12.450364112854004 14.803971290588379,12.815579414367676 14.86667537689209,13.174195289611816 L15.655411720275879,17.74710464477539 L11.509324073791504,15.58000659942627 L16.609153747558594,20.72713851928711Z"/>
  </defs>
  <g opacity="1">
    <use xlink:href="#path-1" fill="rgb(148,146,160)" fill-opacity="1"/>
  </g>
</svg>