<?xml version="1.0" encoding="utf-8"?>
<svg version="1.1" xmlns="http://www.w3.org/2000/svg" xmlns:xlink="http://www.w3.org/1999/xlink" height="22.208613050219128" width="20.000001961965154">
  <defs>
    <path id="path-1" opacity="1" fill-rule="evenodd" d="M10.794445991516113,0.3208332123143691 L19.360000610351562,9.080834394870521 C19.766666412353516,9.49861241000724 20,10.080834394870521 20,10.679722792087318 L20,19.98638916629386 C20,21.211944586215736 19.05889129638672,22.20861054080558 17.9022216796875,22.20861054080558 L14.444445610046387,22.20861054080558 L14.444445610046387,12.208611494479896 C14.444445610046387,11.59527874606681 13.94777774810791,11.097500807224037 13.333334922790527,11.097500807224037 L6.6666669845581055,11.097500807224037 C6.05222225189209,11.097500807224037 5.555556297302246,11.59527874606681 5.555556297302246,12.208611494479896 L5.555556297302246,22.20861054080558 L2.0988893508911133,22.20861054080558 C0.9422225952148438,22.20861054080558 0,21.211944586215736 0,19.98638916629386 L0,10.679722792087318 C0,10.080834394870521 0.23333358764648438,9.49861241000724 0.6388893127441406,9.081945425449135 L9.20555591583252,0.3208332123143691 C9.624444007873535,-0.10694455486702736 10.375555992126465,-0.10694455486702736 10.794445991516113,0.3208332123143691 L12.222445487976074,21.0979461731298 L7.778000831604004,21.0979461731298 L7.778000831604004,13.320168501315834 L12.222445487976074,13.320168501315834 L12.222445487976074,21.0979461731298 L10.794445991516113,0.3208332123143691Z"/>
  </defs>
  <g opacity="1">
    <use xlink:href="#path-1" fill="rgb(148,146,160)" fill-opacity="1"/>
  </g>
</svg>