<?xml version="1.0" encoding="utf-8"?>
<svg version="1.1" xmlns="http://www.w3.org/2000/svg" xmlns:xlink="http://www.w3.org/1999/xlink" height="19.987750000000005" width="18.000000050740255">
  <defs>
    <path id="path-1" opacity="1" fill-rule="evenodd" d="M9.714999198913574,0.28875023956288715 L17.423999786376953,8.172750540923971 C17.790000915527344,8.548749991607565 18,9.072750159454245 18,9.611749716949362 L18,17.987749167632956 C18,19.090749808502096 17.152000427246094,19.987749167632956 16.111000061035156,19.987749167632956 L1.8879995346069336,19.987749167632956 C0.8469991683959961,19.987749167632956 0,19.090749808502096 0,17.987749167632956 L0,9.611749716949362 C0,9.072750159454245 0.21000003814697266,8.548749991607565 0.5749998092651367,8.173749991607565 L8.284998893737793,0.28875023956288715 C8.661999702453613,-0.09624998931894879 9.338000297546387,-0.09624998931894879 9.714999198913574,0.28875023956288715 L15.99000072479248,17.98775107498159 L13.000000953674316,17.98775107498159 L13.000000953674316,10.987751074981588 C13.000000953674316,10.434749671172995 12.552000999450684,9.987751074981588 12.000000953674316,9.987751074981588 L6.000000953674316,9.987751074981588 C5.4470014572143555,9.987751074981588 5.000000953674316,10.434749671172995 5.000000953674316,10.987751074981588 L5.000000953674316,17.98775107498159 L2.0000009536743164,17.98775107498159 L2.0060014724731445,9.570751258087057 L8.998000144958496,2.419749804687399 L16,9.611749716949362 L15.99000072479248,17.98775107498159 L7.000000953674316,17.98775107498159 L11.000000953674316,17.98775107498159 L11.000000953674316,11.987751074981588 L7.000000953674316,11.987751074981588 L7.000000953674316,17.98775107498159 L9.714999198913574,0.28875023956288715Z"/>
  </defs>
  <g opacity="1">
    <use xlink:href="#path-1" fill="rgb(128,128,128)" fill-opacity="1"/>
  </g>
</svg>