<?xml version="1.0" encoding="utf-8"?>
<svg version="1.1" xmlns="http://www.w3.org/2000/svg" xmlns:xlink="http://www.w3.org/1999/xlink" height="20.57142869965395" width="16.000000218603816">
  <defs>
    <path id="path-1" opacity="1" fill-rule="evenodd" d="M12.571430424902644,4.571428808466997 C12.571430424902644,7.0925708143874076 10.521143178198543,9.142858537928667 8.000000218603816,9.142858537928667 C5.478857259009089,9.142858537928667 3.4285719196536206,7.0925708143874076 3.4285719196536206,4.571428808466997 C3.4285719196536206,2.050285848872271 5.478857259009089,3.2679643879873765e-8 8.000000218603816,3.2679643879873765e-8 C10.521143178198543,3.2679643879873765e-8 12.571430424902644,2.050285848872271 12.571430424902644,4.571428808466997 L8.000000218603816,2.2857146589918997 C9.260570744726863,2.2857146589918997 10.285713414404597,3.310857328669634 10.285713414404597,4.571428808466997 C10.285713414404597,5.832000288264361 9.260570744726863,6.857142957942095 8.000000218603816,6.857142957942095 C6.739427785132136,6.857142957942095 5.714285115454402,5.832000288264361 5.714285115454402,4.571428808466997 C5.714285115454402,3.310857328669634 6.739427785132136,2.2857146589918997 8.000000218603816,2.2857146589918997 L16.000000218603816,19.42857173372945 C16.000000218603816,20.059429201380816 15.489143590185847,20.57142833162984 14.857143620703425,20.57142833162984 C14.225143651221003,20.57142833162984 13.714287022803035,20.059429201380816 13.714287022803035,19.42857173372945 C13.714287022803035,16.277715715663042 11.150856236670222,13.714286836878863 8.000000218603816,13.714286836878863 C4.84914420053741,13.714286836878863 2.28571532175323,16.277715715663042 2.28571532175323,19.42857173372945 C2.28571532175323,20.059429201380816 1.7748567859866284,20.57142833162984 1.1428568165042066,20.57142833162984 C0.5108568470217847,20.57142833162984 2.1860381593796774e-7,20.059429201380816 2.1860381593796774e-7,19.42857173372945 C2.1860381593796774e-7,15.017143282191363 3.5897142688967847,11.428571733729449 8.000000218603816,11.428571733729449 C12.410286168310847,11.428571733729449 16.000000218603816,15.017143282191363 16.000000218603816,19.42857173372945 L12.571430424902644,4.571428808466997Z"/>
  </defs>
  <g opacity="1">
    <use xlink:href="#path-1" fill="rgb(148,146,160)" fill-opacity="1"/>
  </g>
</svg>