<?xml version="1.0" encoding="utf-8"?>
<svg version="1.1" xmlns="http://www.w3.org/2000/svg" xmlns:xlink="http://www.w3.org/1999/xlink" height="163.99999999999977" width="164.00000000000045">
  <defs>
    <path id="path-1" opacity="1" fill-rule="evenodd" d="M41.97669982910156,70.47355461120605 L80.36798095703125,21.41640281677246 C82.2236099243164,19.047412872314453 85.64100646972656,18.62262725830078 88.0027084350586,20.485143661499023 C90.37528991699219,22.336769104003906 90.78886413574219,25.76227378845215 88.93323516845703,28.125818252563477 L46.31918716430664,82.58536338806152 C45.296142578125,83.89784049987793 43.72893142700195,84.66571617126465 42.074649810791016,84.67661094665527 L42.03656005859375,84.67661094665527 C40.387718200683594,84.67661094665527 38.831390380859375,83.93051719665527 37.792022705078125,82.6452693939209 L15.105522155761719,54.44611167907715 C13.228131294250488,52.10980033874512 13.59272575378418,48.67884826660156 15.938103675842285,46.78910446166992 C18.278039932250977,44.89936065673828 21.695436477661133,45.280574798583984 23.589153289794922,47.61688995361328 L41.97669982910156,70.47355461120605Z"/>
    <mask id="mask-2" maskUnits="userSpaceOnUse" maskContentUnits="userSpaceOnUse">
      <rect opacity="1" x="0" y="0" width="164.00000000000045" height="163.99999999999977" fill="Black"/>
      <use xlink:href="#path-1" fill="White"/>
    </mask>
    <ellipse id="ellipse-3" opacity="1" rx="82.00000000000023" ry="81.99999999999989" cx="82.00000000000023" cy="81.99999999999989"/>
    <mask id="mask-4" maskUnits="userSpaceOnUse" maskContentUnits="userSpaceOnUse" x="-30.000000000000227" y="-32.999999999999886">
      <rect opacity="1" x="-30.000000000000227" y="-32.999999999999886" width="164.00000000000045" height="163.99999999999977" fill="black"/>
      <use xlink:href="#ellipse-3" fill="white"/>
    </mask>
  </defs>
  <g opacity="1">
    <g transform="translate(30.000000000000227, 32.999999999999886)" opacity="1">
      <g opacity="1">
        <use xlink:href="#path-1" fill="rgb(32,123,24)" fill-opacity="1"/>
      </g>
      <g mask="url(#mask-2)"/>
    </g>
    <g opacity="1">
      <use xlink:href="#ellipse-3" fill-opacity="0" stroke="rgb(32,123,24)" stroke-opacity="1" stroke-width="20" stroke-linecap="butt" stroke-linejoin="miter" mask="url(#mask-4)"/>
    </g>
  </g>
</svg>