<?xml version="1.0" standalone="no"?>
<!DOCTYPE svg PUBLIC "-//W3C//DTD SVG 20010904//EN"
 "http://www.w3.org/TR/2001/REC-SVG-20010904/DTD/svg10.dtd">
<svg version="1.0" xmlns="http://www.w3.org/2000/svg"
 width="512.000000pt" height="512.000000pt" viewBox="0 0 512.000000 512.000000"
 preserveAspectRatio="xMidYMid meet">
<metadata>
Created by potrace 1.11, written by Peter Selinger 2001-2013
</metadata>
<g transform="translate(0.000000,512.000000) scale(0.100000,-0.100000)"
fill="#000000" stroke="none">
<path d="M2331 5109 c-470 -42 -929 -220 -1320 -512 -124 -92 -396 -364 -488
-488 -375 -502 -558 -1111 -515 -1712 13 -190 32 -303 77 -483 45 -177 91
-298 185 -489 276 -561 748 -999 1337 -1240 395 -161 903 -222 1323 -160 834
124 1561 655 1930 1410 86 176 138 320 184 505 50 205 66 327 73 550 17 583
-162 1140 -520 1619 -92 123 -364 396 -487 488 -521 388 -1146 568 -1779 512z
m1434 -1119 c104 -208 105 -209 82 -221 -12 -7 -191 -105 -397 -218 -206 -114
-388 -212 -403 -219 -47 -20 -126 -24 -277 -13 -80 6 -219 16 -310 22 -129 8
-170 15 -190 28 -33 23 -47 63 -34 97 18 53 43 60 289 88 127 14 238 28 247
31 34 13 33 66 -1 84 -10 6 -49 6 -96 1 -44 -5 -154 -16 -245 -25 -138 -14
-172 -20 -207 -41 -47 -27 -79 -73 -91 -130 l-7 -39 -383 -128 c-359 -121
-384 -128 -418 -117 -64 21 -93 108 -53 156 10 13 695 488 904 628 85 57 174
86 265 86 37 0 218 -25 401 -56 480 -80 498 -77 704 106 55 49 103 89 107 90
5 0 55 -94 113 -210z m64 -1906 c38 -31 49 -80 28 -121 -11 -21 -151 -123
-474 -345 -252 -173 -478 -325 -503 -338 -60 -31 -134 -50 -194 -50 -27 0
-214 28 -415 62 -337 56 -371 60 -428 50 -84 -14 -135 -40 -218 -113 -38 -33
-91 -79 -118 -101 l-47 -40 -100 204 c-55 111 -100 208 -100 213 0 18 800 453
857 466 42 10 109 9 340 -5 158 -9 309 -19 335 -22 86 -10 126 -86 78 -147
-29 -37 5 -31 -440 -73 -36 -4 -75 -13 -87 -20 -30 -19 -30 -59 0 -78 19 -12
53 -10 267 14 251 28 284 36 327 82 25 27 53 88 53 117 0 17 53 37 373 144
204 69 386 126 404 126 20 1 42 -8 62 -25z"/>
</g>
</svg>
