<?xml version="1.0" encoding="utf-8"?>
<svg version="1.1" xmlns="http://www.w3.org/2000/svg" xmlns:xlink="http://www.w3.org/1999/xlink" height="20.850000000000023" width="22">
  <defs>
    <path id="path-1" opacity="1" fill-rule="evenodd" d="M17.11772410376191,20.849999999999987 C16.943921998503548,20.849999999999987 16.76901987992077,20.809300975995768 16.608417934555455,20.725702980743858 L10.999449993337922,17.795373252439987 L5.391582065444813,20.725702980743858 C5.019777561790855,20.918198364547607 4.570972125427499,20.88519915589553 4.234368048154983,20.638805064626737 C3.895563944233626,20.392410973357947 3.727261905597367,19.975520970720122 3.798762771684666,19.56303086256924 L4.866875709696477,13.372379319440773 L0.334820813086117,8.98898443682405 C0.03341716219503866,8.69749142706409 -0.07548415692254061,8.259701925613285 0.05321740203459924,7.859311527301495 C0.18191896099173713,7.461121076233175 0.5262231315351947,7.169628066473218 0.9420281681659513,7.11022949089949 L7.212104117359896,6.1994513321023375 L10.014938067982031,0.5609865470851894 C10.38674257163599,-0.18699551569507947 11.613257428364276,-0.18699551569507947 11.985061932018235,0.5609865470851894 L14.78789588264037,6.1994513321023375 L21.057971831834315,7.11022949089949 C21.473776868465073,7.169628066473218 21.818081039008526,7.461121076233175 21.946782597965665,7.859311527301495 C22.075484156922805,8.259701925613285 21.966582837805227,8.69749142706409 21.665179186914152,8.98898443682405 L17.13312429030379,13.372379319440773 L18.2012372283156,19.56303086256924 C18.272738094402897,19.975520970720122 18.103336042442223,20.392410973357947 17.76563195184528,20.638805064626737 "/>
    <linearGradient id="linearGradient-2" x1="0.21" y1="-0.04" x2="1.03" y2="0.96">
      <stop offset="0" stop-color="rgb(131,111,234)" stop-opacity="1"/>
      <stop offset="1" stop-color="rgb(150,85,208)" stop-opacity="1"/>
    </linearGradient>
  </defs>
  <g opacity="1">
    <use xlink:href="#path-1" fill="url(#linearGradient-2)" fill-opacity="1"/>
  </g>
</svg>