<?xml version="1.0" encoding="utf-8"?>
<svg version="1.1" xmlns="http://www.w3.org/2000/svg" xmlns:xlink="http://www.w3.org/1999/xlink" height="18" width="14.000000631327566">
  <defs>
    <path id="path-1" opacity="1" fill-rule="evenodd" d="M11.000000631327566,4 C11.000000631327566,6.205999374389648 9.206000005717215,8 7.000000631327566,8 C4.794001256937918,8 3.0000006313275662,6.205999374389648 3.0000006313275662,4 C3.0000006313275662,1.7939996719360352 4.794001256937918,0 7.000000631327566,0 C9.206000005717215,0 11.000000631327566,1.7939996719360352 11.000000631327566,4 L14.000000631327566,17 C14.000000631327566,17.552000045776367 13.55300203513616,18 13.000000631327566,18 L1.0000006313275662,18 C0.4470011348676053,18 6.313275662250817e-7,17.552000045776367 6.313275662250817e-7,17 C6.313275662250817e-7,13.139999389648438 3.1410013790082303,10 7.000000631327566,10 C10.859001790995535,10 14.000000631327566,13.139999389648438 14.000000631327566,17 L11.000000631327566,4Z"/>
    <linearGradient id="linearGradient-2" x1="0.15" y1="-0.01" x2="1.28" y2="1">
      <stop offset="0" stop-color="rgb(131,111,234)" stop-opacity="1"/>
      <stop offset="1" stop-color="rgb(150,85,208)" stop-opacity="1"/>
    </linearGradient>
  </defs>
  <g opacity="1">
    <use xlink:href="#path-1" fill="url(#linearGradient-2)" fill-opacity="1"/>
  </g>
</svg>