<?xml version="1.0" encoding="utf-8"?>
<svg version="1.1" xmlns="http://www.w3.org/2000/svg" xmlns:xlink="http://www.w3.org/1999/xlink" height="36" width="36">
  <defs>
    <ellipse id="ellipse-1" opacity="1" rx="18" ry="18" cx="18" cy="18"/>
    <path id="path-2" opacity="1" fill-rule="evenodd" d="M19,11 L7.134999999999991,11 L10.768000000000029,6.639999999999986 C11.122000000000014,6.216000000000008 11.064000000000021,5.585000000000036 10.639999999999986,5.231999999999971 C10.214999999999975,4.878000000000043 9.58499999999998,4.9360000000000355 9.231999999999971,5.360000000000014 L4.231999999999971,11.360000000000014 C4.192999999999984,11.407000000000039 4.173000000000002,11.461999999999989 4.1440000000000055,11.51400000000001 C4.1200000000000045,11.55600000000004 4.091000000000008,11.591999999999985 4.072999999999979,11.638000000000034 C4.02800000000002,11.753000000000043 4.000999999999976,11.874000000000024 4.000999999999976,11.995999999999981 C4.000999999999976,11.996999999999957 4,11.999000000000024 4.000999999999976,12.004000000000019 C4,12.000999999999975 4.02800000000002,12.246999999999954 4.072999999999979,12.361999999999963 C4.091000000000008,12.408000000000015 4.1200000000000045,12.443999999999958 4.1440000000000055,12.48599999999999 C4.173000000000002,12.538000000000011 4.192999999999984,12.592999999999961 4.231999999999971,12.639999999999985 L9.231999999999971,18.639999999999983 C9.430000000000007,18.87699999999995 9.713999999999999,18.999999999999996 10,18.999999999999996 C10.225999999999999,18.999999999999996 10.452999999999975,18.923999999999975 10.639999999999986,18.768000000000026 C11.064000000000021,18.41499999999996 11.122000000000014,17.78399999999999 10.768000000000029,17.36000000000001 L7.134999999999991,12.999999999999996 L19,12.999999999999996 C19.55200000000002,12.999999999999996 20,12.55200000000002 20,12 "/>
    <mask id="mask-3" maskUnits="userSpaceOnUse" maskContentUnits="userSpaceOnUse">
      <rect opacity="1" x="0" y="0" width="36" height="36" fill="Black"/>
      <use xlink:href="#path-2" fill="White"/>
    </mask>
  </defs>
  <g opacity="1">
    <g opacity="1">
      <use xlink:href="#ellipse-1" fill="rgb(222,222,227)" fill-opacity="1"/>
    </g>
    <g transform="translate(6, 6)" opacity="1">
      <g opacity="1">
        <use xlink:href="#path-2" fill="rgb(148,146,160)" fill-opacity="1"/>
      </g>
      <g mask="url(#mask-3)"/>
    </g>
  </g>
</svg>