<?xml version="1.0" encoding="utf-8"?>
<svg version="1.1" xmlns="http://www.w3.org/2000/svg" xmlns:xlink="http://www.w3.org/1999/xlink" height="24" width="24">
  <defs>
    <path id="path-1" opacity="1" fill-rule="evenodd" d="M13.414100000000023,12 L17.70710000000003,7.706999999999994 C18.09810000000005,7.315999999999974 18.09810000000005,6.684000000000026 17.70710000000003,6.293000000000006 C17.31610000000001,5.901999999999987 16.684100000000004,5.901999999999987 16.29310000000004,6.293000000000006 L12.000100000000034,10.586000000000013 L7.707100000000025,6.293000000000006 C7.316100000000006,5.901999999999987 6.6841,5.901999999999987 6.293100000000037,6.293000000000006 C5.902100000000018,6.684000000000026 5.902100000000018,7.315999999999974 6.293100000000037,7.706999999999994 L10.586100000000046,12 L6.293100000000037,16.29300000000001 C5.902100000000018,16.684000000000026 5.902100000000018,17.315999999999978 6.293100000000037,17.706999999999997 C6.48810000000003,17.90199999999999 6.744100000000002,18.000000000000007 7.000100000000032,18.000000000000007 C7.2561000000000035,18.000000000000007 7.512100000000032,17.90199999999999 7.707100000000025,17.706999999999997 L12.000100000000034,13.41399999999999 L16.29310000000004,17.706999999999997 C16.488100000000035,17.90199999999999 16.744100000000007,18.000000000000007 17.000100000000035,18.000000000000007 C17.256100000000007,18.000000000000007 17.512100000000036,17.90199999999999 17.70710000000003,17.706999999999997 C18.09810000000005,17.315999999999978 18.09810000000005,16.684000000000026 17.70710000000003,16.29300000000001 L13.414100000000023,12Z"/>
    <mask id="mask-2" maskUnits="userSpaceOnUse" maskContentUnits="userSpaceOnUse">
      <rect opacity="1" x="0" y="0" width="24" height="24" fill="Black"/>
      <use xlink:href="#path-1" fill="White"/>
    </mask>
  </defs>
  <g opacity="1">
    <g opacity="1">
      <use xlink:href="#path-1" fill="rgb(128,128,128)" fill-opacity="1"/>
    </g>
    <g mask="url(#mask-2)"/>
  </g>
</svg>