<?xml version="1.0" encoding="utf-8"?>
<svg version="1.1" xmlns="http://www.w3.org/2000/svg" xmlns:xlink="http://www.w3.org/1999/xlink" height="40" width="40">
  <defs>
    <ellipse id="ellipse-1" opacity="1" rx="20" ry="20" cx="20" cy="20"/>
    <path id="path-2" opacity="1" fill-rule="evenodd" d="M20.3032,13.425799999999983 C19.77719999999999,13.258799999999981 19.215199999999978,13.549799999999978 19.04720000000003,14.075799999999989 C18.110200000000017,17.02179999999999 15.352199999999979,18.999799999999983 12.18420000000003,18.999799999999983 C8.222199999999987,18.999799999999983 5.000200000000007,15.859799999999982 5.000200000000007,11.999799999999995 C5.000200000000007,8.140799999999986 8.222199999999987,4.999799999999993 12.18420000000003,4.999799999999993 C13.912199999999983,4.999799999999993 15.542199999999976,5.601799999999969 16.82920000000001,6.669799999999981 L14.663200000000016,6.312799999999982 C14.113200000000004,6.212799999999987 13.603200000000014,6.591799999999978 13.51319999999998,7.13579999999999 C13.423200000000007,7.680799999999977 13.792199999999978,8.195799999999991 14.337199999999992,8.28479999999999 L18.583199999999977,8.986799999999988 C18.638199999999983,8.995799999999974 18.69420000000002,8.999799999999993 18.74720000000002,8.999799999999993 C18.86619999999999,8.999799999999993 18.982199999999974,8.97879999999998 19.090199999999978,8.938799999999986 C19.127200000000013,8.924799999999978 19.157199999999985,8.898799999999994 19.193199999999987,8.879799999999989 C19.259200000000018,8.845799999999969 19.328199999999978,8.815799999999967 19.385199999999994,8.767799999999996 C19.421199999999995,8.73879999999997 19.44420000000002,8.69679999999997 19.475200000000026,8.662799999999976 C19.522199999999994,8.61379999999997 19.572200000000006,8.566799999999974 19.607199999999974,8.506799999999972 C19.632200000000008,8.463799999999994 19.6422,8.412799999999978 19.661200000000004,8.364799999999976 C19.685200000000005,8.305799999999977 19.717199999999988,8.250799999999971 19.729199999999988,8.185799999999972 L20.483200000000007,4.185799999999972 C20.585199999999983,3.642799999999994 20.22820000000001,3.118799999999993 19.685200000000005,3.017799999999994 C19.14420000000001,2.919799999999981 18.619199999999978,3.2727999999999895 18.5172,3.814799999999991 L18.245200000000008,5.255799999999994 C16.581200000000024,3.814799999999991 14.448199999999984,2.9997999999999934 12.18420000000003,2.9997999999999934 C7.12020000000001,2.9997999999999934 3.0002000000000066,7.036799999999972 3.0002000000000066,11.999799999999995 C3.0002000000000066,16.96279999999999 7.12020000000001,20.999799999999983 12.18420000000003,20.999799999999983 C16.226200000000006,20.999799999999983 19.750200000000003,18.46079999999998 20.953199999999978,14.681799999999983 "/>
    <mask id="mask-3" maskUnits="userSpaceOnUse" maskContentUnits="userSpaceOnUse">
      <rect opacity="1" x="0" y="0" width="40" height="40" fill="Black"/>
      <use xlink:href="#path-2" fill="White"/>
    </mask>
  </defs>
  <g opacity="1">
    <g opacity="1">
      <use xlink:href="#ellipse-1" fill="rgb(222,222,227)" fill-opacity="1"/>
    </g>
    <g transform="translate(8, 8)" opacity="1">
      <g opacity="1">
        <use xlink:href="#path-2" fill="rgb(128,128,128)" fill-opacity="1"/>
      </g>
      <g mask="url(#mask-3)"/>
    </g>
  </g>
</svg>