<?xml version="1.0" encoding="utf-8"?>
<svg version="1.1" xmlns="http://www.w3.org/2000/svg" xmlns:xlink="http://www.w3.org/1999/xlink" height="26" width="26.0002492133357">
  <defs>
    <path id="path-1" opacity="1" fill-rule="evenodd" d="M20.67279815673828,18.628999710083008 L25.57666778564453,23.534332275390625 C26.141441345214844,24.09911346435547 26.141441345214844,25.012001037597656 25.57666778564453,25.576778411865234 C25.295001983642578,25.858444213867188 24.92522430419922,26 24.555450439453125,26 C24.185672760009766,26 23.815895080566406,25.858444213867188 23.53423309326172,25.576778411865234 L18.62891960144043,20.672889709472656 C16.67315101623535,22.193889617919922 14.221939086914062,23.11111068725586 11.555505752563477,23.11111068725586 C5.184089660644531,23.11111068725586 0,17.927000045776367 0,11.55555534362793 C0,5.184110641479492 5.184089660644531,0 11.555505752563477,0 C17.926923751831055,0 23.111011505126953,5.184110641479492 23.111011505126953,11.55555534362793 C23.111011505126953,14.222000122070312 22.19379425048828,16.673221588134766 20.67279815673828,18.628999710083008 L11.55550765991211,2.8888893127441406 C6.775859832763672,2.8888893127441406 2.8888769149780273,6.775890350341797 2.8888769149780273,11.555557250976562 C2.8888769149780273,16.335222244262695 6.775859832763672,20.22222137451172 11.55550765991211,20.22222137451172 C16.33515167236328,20.22222137451172 20.222137451171875,16.335222244262695 20.222137451171875,11.555557250976562 C20.222137451171875,6.775890350341797 16.33515167236328,2.8888893127441406 11.55550765991211,2.8888893127441406 L20.67279815673828,18.628999710083008Z"/>
  </defs>
  <g opacity="1">
    <use xlink:href="#path-1" fill="rgb(128,128,128)" fill-opacity="1"/>
  </g>
</svg>