<?xml version="1.0" encoding="utf-8"?>
<svg version="1.1" xmlns="http://www.w3.org/2000/svg" xmlns:xlink="http://www.w3.org/1999/xlink" height="22.2086130502191" width="20.000001961965303">
  <defs>
    <path id="path-1" opacity="1" fill-rule="evenodd" d="M10.794445991516113,0.32083321231439754 L19.360000610351562,9.08083439487055 C19.766666412353516,9.498612410007269 20,10.08083439487055 20,10.679722792087347 L20,19.98638916629389 C20,21.211944586215765 19.05889129638672,22.20861054080561 17.9022216796875,22.20861054080561 L14.444445610046387,22.20861054080561 L14.444445610046387,12.208611494479925 C14.444445610046387,11.595278746066839 13.94777774810791,11.097500807224066 13.333334922790527,11.097500807224066 L6.6666669845581055,11.097500807224066 C6.05222225189209,11.097500807224066 5.555556297302246,11.595278746066839 5.555556297302246,12.208611494479925 L5.555556297302246,22.20861054080561 L2.0988893508911133,22.20861054080561 C0.9422225952148438,22.20861054080561 0,21.211944586215765 0,19.98638916629389 L0,10.679722792087347 C0,10.08083439487055 0.23333358764648438,9.498612410007269 0.6388893127441406,9.081945425449163 L9.20555591583252,0.32083321231439754 C9.624444007873535,-0.10694455486699894 10.375555992126465,-0.10694455486699894 10.794445991516113,0.32083321231439754 L12.222445487976074,21.097946173129827 L7.778000831604004,21.097946173129827 L7.778000831604004,13.320168501315862 L12.222445487976074,13.320168501315862 L12.222445487976074,21.097946173129827 L10.794445991516113,0.32083321231439754Z"/>
    <linearGradient id="linearGradient-2" x1="0.12" y1="0" x2="1.12" y2="1">
      <stop offset="0" stop-color="rgb(131,111,234)" stop-opacity="1"/>
      <stop offset="1" stop-color="rgb(150,85,208)" stop-opacity="1"/>
    </linearGradient>
  </defs>
  <g opacity="1">
    <use xlink:href="#path-1" fill="url(#linearGradient-2)" fill-opacity="1"/>
  </g>
</svg>