<?xml version="1.0" encoding="utf-8"?>
<svg version="1.1" xmlns="http://www.w3.org/2000/svg" xmlns:xlink="http://www.w3.org/1999/xlink" height="20.571428699653953" width="16.000000218603816">
  <defs>
    <path id="path-1" opacity="1" fill-rule="evenodd" d="M12.571430424902644,4.571428808467002 C12.571430424902644,7.092570814387412 10.521143178198543,9.14285853792867 8.000000218603816,9.14285853792867 C5.478857259009089,9.14285853792867 3.4285719196536206,7.092570814387412 3.4285719196536206,4.571428808467002 C3.4285719196536206,2.0502858488722753 5.478857259009089,3.2679648320765864e-8 8.000000218603816,3.2679648320765864e-8 C10.521143178198543,3.2679648320765864e-8 12.571430424902644,2.0502858488722753 12.571430424902644,4.571428808467002 L8.000000218603816,2.285714658991904 C9.260570744726863,2.285714658991904 10.285713414404597,3.3108573286696386 10.285713414404597,4.571428808467002 C10.285713414404597,5.832000288264365 9.260570744726863,6.8571429579420995 8.000000218603816,6.8571429579420995 C6.739427785132136,6.8571429579420995 5.714285115454402,5.832000288264365 5.714285115454402,4.571428808467002 C5.714285115454402,3.3108573286696386 6.739427785132136,2.285714658991904 8.000000218603816,2.285714658991904 L16.000000218603816,19.428571733729452 C16.000000218603816,20.05942920138082 15.489143590185847,20.571428331629843 14.857143620703425,20.571428331629843 C14.225143651221003,20.571428331629843 13.714287022803035,20.05942920138082 13.714287022803035,19.428571733729452 C13.714287022803035,16.277715715663046 11.150856236670222,13.714286836878866 8.000000218603816,13.714286836878866 C4.84914420053741,13.714286836878866 2.28571532175323,16.277715715663046 2.28571532175323,19.428571733729452 C2.28571532175323,20.05942920138082 1.7748567859866284,20.571428331629843 1.1428568165042066,20.571428331629843 C0.5108568470217847,20.571428331629843 2.1860381593796774e-7,20.05942920138082 2.1860381593796774e-7,19.428571733729452 C2.1860381593796774e-7,15.017143282191366 3.5897142688967847,11.428571733729452 8.000000218603816,11.428571733729452 C12.410286168310847,11.428571733729452 16.000000218603816,15.017143282191366 16.000000218603816,19.428571733729452 L12.571430424902644,4.571428808467002Z"/>
  </defs>
  <g opacity="1">
    <use xlink:href="#path-1" fill="rgb(148,146,160)" fill-opacity="1"/>
  </g>
</svg>